<?xml version="1.0" standalone="no"?>
<!DOCTYPE svg PUBLIC "-//W3C//DTD SVG 20010904//EN"
 "http://www.w3.org/TR/2001/REC-SVG-20010904/DTD/svg10.dtd">
<svg version="1.0" xmlns="http://www.w3.org/2000/svg"
 width="700.000000pt" height="700.000000pt" viewBox="0 0 700.000000 700.000000"
 preserveAspectRatio="xMidYMid meet">
<metadata>
Created by potrace 1.11, written by Peter Selinger 2001-2013
</metadata>
<g transform="translate(0.000000,700.000000) scale(0.100000,-0.100000)"
fill="#000000" stroke="none">
<path d="M5043 6990 c-4 -4 -35 -22 -68 -40 -33 -19 -91 -52 -130 -75 -38 -22
-77 -44 -85 -48 -8 -4 -31 -17 -50 -28 -40 -24 -281 -164 -325 -189 -46 -26
-208 -120 -225 -130 -14 -9 -268 -155 -350 -202 -19 -11 -109 -63 -200 -116
-91 -52 -195 -113 -232 -134 -37 -21 -82 -46 -100 -57 -18 -10 -73 -42 -123
-71 -49 -29 -115 -66 -145 -83 -30 -16 -62 -36 -71 -43 -8 -8 -18 -14 -21 -14
-4 0 -39 -19 -80 -43 -71 -43 -120 -70 -215 -123 -27 -15 -52 -30 -58 -34 -5
-4 -116 -68 -245 -142 -129 -75 -260 -150 -290 -168 -30 -18 -80 -47 -110 -63
-30 -17 -86 -49 -125 -72 -38 -23 -167 -97 -285 -165 -324 -185 -330 -189
-396 -255 -77 -76 -142 -187 -160 -274 -3 -14 -8 -29 -12 -35 -4 -6 -7 -798
-8 -1761 -1 -1858 -3 -1787 44 -1838 9 -11 49 -37 87 -59 39 -21 86 -49 105
-60 84 -50 144 -78 169 -78 40 1 80 21 502 265 217 125 412 238 434 251 l40
23 0 -291 c-1 -314 2 -337 56 -384 20 -17 238 -146 414 -244 22 -12 92 -52
155 -89 182 -106 210 -115 340 -116 111 0 178 18 272 74 35 21 290 170 568
331 629 365 626 363 640 405 16 50 16 254 0 285 -18 34 -16 33 -358 231 l-304
176 0 323 c0 177 4 326 9 330 7 7 356 211 483 283 32 18 106 61 490 282 198
114 231 139 304 228 44 53 100 173 115 245 7 35 11 221 11 542 l0 489 70 0
c48 0 84 6 115 20 146 65 280 216 334 377 34 104 41 180 41 483 l0 294 -82
151 c-45 83 -91 169 -103 191 -12 22 -44 81 -70 130 -26 50 -60 113 -75 140
-15 28 -43 79 -62 115 -20 36 -65 120 -102 187 l-66 122 0 146 c0 165 -8 198
-62 239 -19 14 -37 26 -41 26 -3 0 -38 19 -79 43 -155 92 -181 104 -230 104
-25 1 -50 -3 -55 -7z"/>
</g>
</svg>
